inDegrees=no
num_controls=7
num_derivatives=13
num_iterations=136
num_multipliers=7
num_parameters=0
num_slacks=7
num_states=26
objective=5.245962
objective_accelerations=0.467256
objective_balance=0.077872
objective_effort=0.415784
objective_height=4.202657
objective_ligament=0.082393
solver_duration=1600.457673
status=Solve_Succeeded
success=true
DataType=double
version=3
OpenSimVersion=4.4-2022-07-23-0e9fedc
endheader
time	/jointset/ground_pelvis/pelvis_tilt/value	/jointset/ground_pelvis/pelvis_tx/value	/jointset/ground_pelvis/pelvis_ty/value	/jointset/hip_l/hip_flexion_l/value	/jointset/hip_l/hip_adduction_l/value	/jointset/hip_l/hip_rotation_l/value	/jointset/back/lumbar_extension/value	/jointset/patellofemoral_l/patellar_flexion_l/value	/jointset/knee_l/knee_flexion_l/value	/jointset/knee_l/knee_adduction_l/value	/jointset/knee_l/knee_rotation_l/value	/jointset/ankle_l/ankle_angle_l/value	/jointset/subtalar_l/subtalar_angle_l/value	/jointset/ground_pelvis/pelvis_tilt/speed	/jointset/ground_pelvis/pelvis_tx/speed	/jointset/ground_pelvis/pelvis_ty/speed	/jointset/hip_l/hip_flexion_l/speed	/jointset/hip_l/hip_adduction_l/speed	/jointset/hip_l/hip_rotation_l/speed	/jointset/back/lumbar_extension/speed	/jointset/patellofemoral_l/patellar_flexion_l/speed	/jointset/knee_l/knee_flexion_l/speed	/jointset/knee_l/knee_adduction_l/speed	/jointset/knee_l/knee_rotation_l/speed	/jointset/ankle_l/ankle_angle_l/speed	/jointset/subtalar_l/subtalar_angle_l/speed	/forceset/tau_hip_flexion_l	/forceset/tau_hip_adduction_l	/forceset/tau_hip_rotation_l	/forceset/tau_knee_flexion_l	/forceset/tau_ankle_angle_l	/forceset/tau_subtalar_angle_l	/forceset/tau_lumbar_extension	lambda_cid13_p0	lambda_cid13_p1	lambda_cid13_p2	lambda_cid13_p3	lambda_cid13_p4	lambda_cid13_p5	lambda_cid14_p0	/jointset/ground_pelvis/pelvis_tilt/accel	/jointset/ground_pelvis/pelvis_tx/accel	/jointset/ground_pelvis/pelvis_ty/accel	/jointset/hip_l/hip_flexion_l/accel	/jointset/hip_l/hip_adduction_l/accel	/jointset/hip_l/hip_rotation_l/accel	/jointset/back/lumbar_extension/accel	/jointset/patellofemoral_l/patellar_flexion_l/accel	/jointset/knee_l/knee_flexion_l/accel	/jointset/knee_l/knee_adduction_l/accel	/jointset/knee_l/knee_rotation_l/accel	/jointset/ankle_l/ankle_angle_l/accel	/jointset/subtalar_l/subtalar_angle_l/accel	gamma_cid13_p0	gamma_cid13_p1	gamma_cid13_p2	gamma_cid13_p3	gamma_cid13_p4	gamma_cid13_p5	gamma_cid14_p0
1	-0.6639414715807898	-0.1366782996626508	0.6482569874807181	1.802515002077999	-0.3096889183441866	0.05585803803847239	-0.4363193580688876	0.9854725367079509	0.9854725367079551	-0.1745257913694208	0.1745291381938165	0.02654997795580844	-0.05456240947890732	-0.01005573364539363	0.000903504920800079	-0.00285926378903262	0.01563908117611603	0.0004729592596889217	0.003409239720363819	0.000309897077696248	0.008854685688266858	0.00885468568826561	1.526700496536843e-05	-3.399882140790294e-05	0.004017830372336926	0.001169905610392836	-0.4340310272979628	0.01804198422790716	-0.01957960876175045	-0.207392673582953	0.152166690993855	0.04443408662964086	0.3485524095029278	3.528786103548609	-20.47377612775226	3.499245214649404	4.213427286268105	-712.5201399011621	-48.57220918847798	-10.09470772740219	2.058151377334667	0.3702683679820875	1.373646992593835	-5.719496368045236	-0.1506247161400912	-1.385319123743227	-0.03643257902936825	-3.85643095922232	-3.856430959222325	-0.0280996770829811	0.01150962692739508	-0.4303699238277175	-0.1932993569681447	1.312715319115157e-09	2.942769609890648e-09	-2.740849150347858e-09	-1.717716471635319e-09	2.144821251726515e-09	2.596677730203822e-10	6.855085917394477e-10
1.01	-0.6639398557496672	-0.1366508191853907	0.6482969494066226	1.802386441086378	-0.3096910731228882	0.05582258237058652	-0.436317322525941	0.985368490224234	0.9853684902242522	-0.1745257190384558	0.1745289101460471	0.0265687732985936	-0.05455968880868796	0.0103789343372203	0.004592868227198179	0.01084864298012719	-0.04134439425454229	-0.0009029646889368778	-0.01049728783380604	9.095331581703505e-05	-0.02965784881102162	-0.02965784881102179	-1.718265531186634e-06	-1.15933312957437e-05	-0.0002592233043121297	-0.0006249527259546608	-0.4338301687077388	0.01805210596157849	-0.01958290022163903	-0.2073884228358808	0.1521868401181416	0.04443225324617476	0.3484085575417361	3.547043527199635	-20.47763829953232	3.501530472202843	4.182521299148682	-712.3410410518055	-48.58561702392781	-10.10120069066538	2.036129400040747	0.368311932254377	1.368911120549304	-5.686740676732955	-0.1309343193252756	-1.39285888269355	-0.01556401018559468	-3.847744171368193	-3.847744171368026	0.01136358400891426	-0.002393759254082119	-0.4264421739665752	-0.1724567403108616	-1.276179236904698e-09	-4.0091264615596e-09	9.534525160380057e-09	-1.858565474259142e-10	-2.453772909254679e-09	7.658738997535126e-09	-2.373079342872039e-09
1.02	-0.6637338922604521	-0.1365864367510094	0.6484739001205133	1.80168825183125	-0.3097069587580943	0.0556481535648579	-0.4363176641673446	0.9848795025003073	0.9848795025003085	-0.1745258442529976	0.1745289061992487	0.02654478428773515	-0.05457489225550063	0.03081379797247675	0.008283896345062887	0.02453849380823893	-0.09828657153145103	-0.0022732120416175	-0.02438538784556699	-0.0001655398627832218	-0.06813356235375449	-0.06813356235375505	-2.424209435952257e-05	1.082138652852695e-05	-0.004539040356286173	-0.002414917796018081	-0.4336293101173803	0.0180622276952396	-0.01958619168135034	-0.2073841720888552	0.1522069892423935	0.04443041986269144	0.3482647055807051	3.559002747975276	-20.48151903817695	3.505099634370324	4.16239895946852	-712.2502860536148	-48.58466263868874	-10.13169322360339	2.058190507863189	0.370601330275397	1.370035804384218	-5.711236737295316	-0.149489396951044	-1.381633615261513	-0.0439424623738496	-3.849066767911186	-3.849066767911486	-0.02920738874926471	0.01151147246984885	-0.430922598892731	-0.1923207037113203	-3.676585867089432e-09	-1.106577626681873e-08	2.140422448587938e-08	8.833990266131838e-10	-6.578172072571375e-09	1.485996861739361e-08	-5.420428163456067e-09
1.03	-0.6633235461556861	-0.1364850969681236	0.6487876518013473	1.800420787629446	-0.3097364757480871	0.05533493815006149	-0.4363204727296032	0.9840059183468703	0.9840059183468818	-0.1745261992381533	0.1745291105626874	0.02647799260027814	-0.05460792432746103	0.05125865829084065	0.01198820259236211	0.03820815800176394	-0.1552054005242042	-0.00362478648877315	-0.03825531182569417	-0.0003737453680727895	-0.1065795925515248	-0.1065795925515226	-4.438643359531316e-05	2.88551632148205e-05	-0.00881881194261009	-0.004185843360887972	-0.4335504786955421	0.01817593367788087	-0.01958270814958618	-0.207178016874857	0.1520383175922868	0.04452356451667848	0.3482983713467739	3.513012659796392	-20.51812487757007	3.515739413225422	4.137007620586679	-712.177250496866	-48.63479289755165	-10.18619978578472	2.038118146644754	0.3709670219456961	1.364876908791891	-5.68207691930317	-0.1271837717137559	-1.389322045766046	-0.005895513105908727	-3.841818066418579	-3.841818066417965	0.01193398390999932	-0.003238434071470518	-0.4264315090339014	-0.1686315291628485	-6.075069151092174e-09	-1.812349498772897e-08	3.32697842707131e-08	1.947934148099522e-09	-1.06977325114221e-08	2.205917944536784e-08	-8.467662299203081e-09
1.04	-0.6627086545771671	-0.136346589772767	0.6492379891605077	1.798584160949935	-0.3097793469431731	0.05488309344419205	-0.4363246905301695	0.982747984507312	0.982747984507311	-0.1745266852786243	0.1745294577109874	0.02636841778285207	-0.05465849626432771	0.07172289272207089	0.01571737883923396	0.051855629473544	-0.2121190670784574	-0.004944053060570277	-0.052111246060929	-0.0004473876133110259	-0.1450034995776414	-0.145003499577635	-5.045315600593377e-05	3.937836632117997e-05	-0.01309566635020289	-0.00592289077728092	-0.4334716472735795	0.01828963966054163	-0.01957922461778268	-0.2069718616608825	0.1518696459421605	0.04461670917068185	0.3483320371129842	3.460677284852006	-20.55473064024848	3.527648245217687	4.122435932263593	-712.1933644980063	-48.67078823812048	-10.26468618820921	2.062065330436482	0.3755753301898881	1.365597260035228	-5.710204249595311	-0.1430278218792589	-1.378835666282986	-0.01702981036178942	-3.844642133580463	-3.844642133580471	-0.02639186538414288	0.01000935775372925	-0.430339163146541	-0.1855450740158558	-8.226719347942645e-09	-2.506853641697344e-08	4.504790204669759e-08	2.479191128498508e-09	-1.45363153139621e-08	2.908102469323841e-08	-1.149317142111739e-08
1.05	-0.6618889096519004	-0.1361706262248004	0.6498246766170085	1.796178329413263	-0.3098352106727205	0.05429280605205428	-0.436329002669507	0.9811059638187031	0.9811059638186891	-0.1745271642255778	0.1745298526903549	0.02621612138280776	-0.05472622342696017	0.09224078004696667	0.01948350613172765	0.06547690616560484	-0.2690560856277704	-0.006218971510240157	-0.06594076173189883	-0.0003956802046332751	-0.1833929461303151	-0.1833929461303116	-4.133231422579389e-05	3.679607587658073e-05	-0.01735974294133113	-0.007611796863792484	-0.4332098960947755	0.01845807906535345	-0.01958280443204553	-0.2067331352349615	0.1517717134986706	0.0447388416391314	0.3482929224183253	3.441865007890389	-20.61265808665111	3.546226035264875	4.042279508706467	-712.0671739852048	-48.74858475209541	-10.36717958284107	2.0488519542243	0.3783583392694311	1.359645812717459	-5.686779511578937	-0.1182694829990107	-1.384202204333641	0.01917502140709033	-3.834939179894272	-3.834939179894714	0.01515890032689396	-0.005829475766514342	-0.423861057014199	-0.1589532394375417	-1.037065601081961e-08	-3.201005668085335e-08	5.682328725990554e-08	2.993783166988519e-09	-1.836611756536738e-08	3.609732726673073e-08	-1.451800163634943e-08
1.06	-0.660863545549241	-0.1359567560218105	0.6505474274282145	1.79320286192029	-0.3099035327120638	0.05356438496585108	-0.4363322169325693	0.9790802800118059	0.9790802800117999	-0.1745274329958604	0.1745301343561705	0.02602130038686888	-0.05481051762315148	0.1128467282001687	0.023298709843883	0.07906830041462237	-0.3260462583362851	-0.007435715019441357	-0.07973798487605259	-0.0002278125989479351	-0.2217361232343318	-0.2217361232343319	-8.417817735528608e-06	1.671565251414412e-05	-0.02160058552919127	-0.009236297489055236	-0.4329481449160398	0.0186265184701767	-0.01958638424642535	-0.2064944088090166	0.1516737810551987	0.04486097410759622	0.3482538077235867	3.416625640498358	-20.67055746029216	3.566052795364432	3.972824980212428	-712.0317128987768	-48.81279808611217	-10.49364379489943	2.079677496097764	0.3853906141221792	1.359620771426559	-5.72083508143561	-0.1313928337854502	-1.372377160919648	0.006202229045259694	-3.8353882438491	-3.835388243849269	-0.02163313444209304	0.006509731169991553	-0.425692362492967	-0.1726639817660286	-1.267564685222851e-08	-3.952889793870241e-08	6.834482980299894e-08	3.522143021113389e-09	-2.15039238149412e-08	4.309472143444285e-08	-1.767204746863992e-08
